<?xml version="1.0" encoding="UTF-8"?>
<svg width="66px" height="71px" viewBox="0 0 66 71" version="1.1" xmlns="http://www.w3.org/2000/svg" xmlns:xlink="http://www.w3.org/1999/xlink">
    <!-- Generator: sketchtool 52.6 (67491) - http://www.bohemiancoding.com/sketch -->
    <title>BD817E27-0A3F-4113-86CE-EEB7C02222C0</title>
    <desc>Created with sketchtool.</desc>
    <g id="Page-1" stroke="none" stroke-width="1" fill="none" fill-rule="evenodd">
        <g id="Landing-Page-3" transform="translate(-311.000000, -3168.000000)" fill="#FFFFFF" fill-rule="nonzero">
            <g id="Footer-1" transform="translate(2.000000, 2687.000000)">
                <g id="Group-16" transform="translate(309.000000, 366.000000)">
                    <g id="Group-7" transform="translate(0.000000, 115.000000)">
                        <g id="Group-5">
                            <g id="at-(1)">
                                <path d="M33.0002086,0.251173709 C14.8043242,0.251173709 0.000208591238,15.9525084 0.000208591238,35.2511737 C0.000208591238,54.549839 14.8043242,70.2511737 33.0002086,70.2511737 C39.2520904,70.2511737 45.3389233,68.3862429 50.6018894,64.861534 L48.39839,61.1616271 C43.7960329,64.2463684 38.4706568,65.8763381 33.0002086,65.8763381 C17.078362,65.8763381 4.12519137,52.138273 4.12519137,35.2513198 C4.12519137,18.3643667 17.0782242,4.62615544 33.0002086,4.62615544 C48.922193,4.62615544 61.8752258,18.3642206 61.8752258,35.2511737 L61.8752258,37.4387376 C61.8752258,41.0575479 59.0997039,44.0012833 55.6876828,44.0012833 C52.2756617,44.0012833 49.5001397,41.0575479 49.5001397,37.4387376 L49.5001397,22.1262285 L45.3751569,22.1262285 L45.3751569,23.7991575 C42.3483418,20.1242371 37.9515381,17.7512468 33.0002086,17.7512468 C23.9022664,17.7512468 16.5002775,25.6018411 16.5002775,35.2511737 C16.5002775,44.9005064 23.9022664,52.7511006 33.0002086,52.7511006 C39.1643307,52.7511006 44.4857114,49.1054043 47.3181325,43.7800575 C49.1908452,46.5512251 52.2351572,48.3761189 55.6876828,48.3761189 C61.3736039,48.3761189 66.0002086,43.46926 66.0002086,37.4385915 L66.0002086,35.2510276 C66.0002086,15.9525084 51.196093,0.251173709 33.0002086,0.251173709 Z M33.0002086,48.3761189 C26.1761664,48.3761189 20.6252603,42.4886481 20.6252603,35.2511737 C20.6252603,28.0136993 26.1763042,22.1262285 33.0002086,22.1262285 C39.824113,22.1262285 45.3751569,28.0136993 45.3751569,35.2511737 C45.3751569,42.4886481 39.824113,48.3761189 33.0002086,48.3761189 Z" id="Shape"></path>
                            </g>
                        </g>
                    </g>
                </g>
            </g>
        </g>
    </g>
</svg>