<?xml version="1.0" encoding="UTF-8"?>
<svg width="101px" height="101px" viewBox="0 0 101 101" version="1.1" xmlns="http://www.w3.org/2000/svg" xmlns:xlink="http://www.w3.org/1999/xlink">
    <!-- Generator: sketchtool 52.6 (67491) - http://www.bohemiancoding.com/sketch -->
    <title>1F4BA521-10E8-43E2-B536-0C5F859B55E2</title>
    <desc>Created with sketchtool.</desc>
    <g id="Page-1" stroke="none" stroke-width="1" fill="none" fill-rule="evenodd">
        <g id="Landing-Page-3" transform="translate(-1183.000000, -3187.000000)" fill="#FFFFFF">
            <g id="Footer-1" transform="translate(2.000000, 2687.000000)">
                <g id="Group-16" transform="translate(309.000000, 366.000000)">
                    <g id="Group-20" transform="translate(872.000000, 15.000000)">
                        <g id="Socials" transform="translate(0.000000, 119.000000)">
                            <path d="M64,33.8 L59.2875196,33.803125 C55.5920087,33.803125 54.8754363,35.55625 54.8754363,38.128125 L54.8754363,43.803125 L63.6902154,43.803125 L62.5418221,52.69375 L54.8754363,52.69375 L54.8754363,75.5 L45.6851607,75.5 L45.6851607,52.69375 L38,52.69375 L38,43.803125 L45.6851607,43.803125 L45.6851607,37.25 C45.6851607,29.640625 50.3381875,25.5 57.1315441,25.5 C60.3858467,25.5 63.1832952,25.740625 64,25.85 L64,33.8 Z M50.5,0.5 C22.611375,0.5 0,22.884375 0,50.5 C0,78.1125 22.611375,100.5 50.5,100.5 C78.3917813,100.5 101,78.1125 101,50.5 C101,22.884375 78.3917813,0.5 50.5,0.5 L50.5,0.5 Z" id="Fill-183"></path>
                        </g>
                    </g>
                </g>
            </g>
        </g>
    </g>
</svg>