<?xml version="1.0" encoding="UTF-8"?>
<svg width="102px" height="101px" viewBox="0 0 102 101" version="1.1" xmlns="http://www.w3.org/2000/svg" xmlns:xlink="http://www.w3.org/1999/xlink">
    <!-- Generator: sketchtool 52.6 (67491) - http://www.bohemiancoding.com/sketch -->
    <title>2C64CDBD-1DA1-4EB5-956C-4E282EC6B7EE</title>
    <desc>Created with sketchtool.</desc>
    <g id="Page-1" stroke="none" stroke-width="1" fill="none" fill-rule="evenodd">
        <g id="Landing-Page-3" transform="translate(-1323.000000, -3187.000000)" fill="#FFFFFF">
            <g id="Footer-1" transform="translate(2.000000, 2687.000000)">
                <g id="Group-16" transform="translate(309.000000, 366.000000)">
                    <g id="Group-20" transform="translate(872.000000, 15.000000)">
                        <g id="Socials" transform="translate(0.000000, 119.000000)">
                            <g id="Group-10" transform="translate(140.000000, 0.000000)">
                                <path d="M50.7287424,59.5 C55.9742738,59.5 60.2287424,55.2475159 60.2287424,49.9984525 C60.2287424,44.7524841 55.9742738,40.5 50.7287424,40.5 C45.4832111,40.5 41.2287424,44.7524841 41.2287424,49.9984525 C41.2287424,55.2475159 45.4832111,59.5 50.7287424,59.5" id="Fill-202"></path>
                                <path d="M61.5468202,40.5 L67.9106646,40.5 C68.6373727,40.5 69.2287424,39.9100295 69.2287424,39.1843658 L69.2287424,32.8156342 C69.2287424,32.0899705 68.6373727,31.5 67.9106646,31.5 L61.5468202,31.5 C60.8201121,31.5 60.2287424,32.0899705 60.2287424,32.8156342 L60.2287424,39.1843658 C60.2287424,39.9100295 60.8201121,40.5 61.5468202,40.5" id="Fill-203"></path>
                                <path d="M75.9787424,69.56875 C75.9787424,72.84375 73.2927737,75.5 69.9755549,75.5 L31.4819299,75.5 C28.1678674,75.5 25.4787424,72.84375 25.4787424,69.56875 L25.4787424,31.428125 C25.4787424,28.153125 28.1678674,25.5 31.4819299,25.5 L69.9755549,25.5 C73.2927737,25.5 75.9787424,28.153125 75.9787424,31.428125 L75.9787424,69.56875 Z M50.7287424,0.5 C22.8369612,0.5 0.228742415,22.884375 0.228742415,50.5 C0.228742415,78.1125 22.8369612,100.5 50.7287424,100.5 C78.6205237,100.5 101.228742,78.1125 101.228742,50.5 C101.228742,22.884375 78.6205237,0.5 50.7287424,0.5 L50.7287424,0.5 Z" id="Fill-204"></path>
                                <path d="M66.0584953,49.4881161 C66.0584953,57.8029034 59.1826271,64.570898 50.7287424,64.570898 C42.2748577,64.570898 35.3989895,57.8029034 35.3989895,49.4881161 C35.3989895,48.1090479 35.5879736,46.7703579 35.9438934,45.5 L31.2287424,45.5 L31.2287424,67.1116138 C31.2287424,67.8787981 31.8586891,68.5 32.6366733,68.5 L68.8176618,68.5 C69.5987957,68.5 70.2287424,67.8787981 70.2287424,67.1116138 L70.2287424,45.5 L65.5135914,45.5 C65.8695113,46.7703579 66.0584953,48.1090479 66.0584953,49.4881161" id="Fill-205"></path>
                            </g>
                        </g>
                    </g>
                </g>
            </g>
        </g>
    </g>
</svg>