<?xml version="1.0" encoding="UTF-8"?>
<svg width="705px" height="310px" viewBox="0 0 705 310" version="1.1" xmlns="http://www.w3.org/2000/svg" xmlns:xlink="http://www.w3.org/1999/xlink">
    <!-- Generator: Sketch 52.6 (67491) - http://www.bohemiancoding.com/sketch -->
    <title>Final Files-01</title>
    <desc>Created with Sketch.</desc>
    <g id="Page-1" stroke="none" stroke-width="1" fill="none" fill-rule="evenodd">
        <g id="Landing-Page-3" transform="translate(-988.000000, -100.000000)">
            <g id="Final-Files-01" transform="translate(988.000000, 100.000000)">
                <path d="M182.190023,55.2058991 C181.848665,54.9669689 181.604918,54.5510533 181.457665,53.9614709 L179.461391,45.9611806 C179.314139,45.3710451 179.338681,44.8898663 179.537249,44.517644 C179.735816,44.1465278 180.151916,43.7809425 180.784432,43.4231003 L180.557418,42.5088604 L161.9127,47.0833783 C161.316997,47.2299443 160.838984,47.2105865 160.477547,47.025858 C160.116667,46.8422358 159.751882,46.4207894 159.384309,45.7631783 L158.461751,45.9899407 L160.729103,55.0748193 L161.651661,54.8486099 C161.672299,54.115227 161.798356,53.5798463 162.029832,53.2397026 C162.260751,52.900112 162.674061,52.6573102 163.269764,52.5112973 L172.979497,50.1286322 L174.305884,55.442617 C172.982844,56.6770897 171.326255,57.8009466 169.337232,58.8147407 C167.347651,59.8285349 165.267154,60.6006334 163.096854,61.1338017 C158.640796,62.2266862 154.758688,61.9479343 151.452202,60.2953337 C147.843961,58.495614 145.526409,55.5410651 144.50122,51.4305806 C143.442565,47.1884633 144.116356,43.3987648 146.523709,40.061485 C148.660542,37.1146792 151.784078,35.1363149 155.892643,34.1291578 C157.908439,33.6341519 160.125033,33.4167918 162.544658,33.4770774 C164.963724,33.537363 166.867408,33.8592551 168.256266,34.4444129 C168.893244,34.7109971 169.32273,34.9626481 169.545282,35.199366 C169.767276,35.43719 169.966401,35.8658264 170.141542,36.4863812 L171.083065,36.708166 L173.376075,26.2311871 L172.462441,26 C172.033512,26.5707777 171.618528,26.9048375 171.2147,27.0038387 C170.657483,27.1410023 169.661299,27.1122422 168.227261,26.9175584 C165.449546,26.5685654 163.015419,26.433061 160.924881,26.5115982 C158.835459,26.5901355 156.665718,26.9048375 154.418445,27.4557044 C147.349215,29.1907138 142.12064,32.3333097 138.730488,36.8840452 C135.158502,41.6814539 134.151162,47.2039495 135.710699,53.4509789 C137.383464,60.1559577 141.214815,64.774722 147.204194,67.3067184 C151.962008,69.3132897 157.517997,69.5361806 163.87216,67.9770504 C170.878362,66.2586334 177.587828,62.3688275 184,56.3081859 L183.82207,55.5947138 C183.074095,55.5764621 182.530265,55.4464885 182.190023,55.2058991" id="Fill-1" fill="#FFFFFF"></path>
                <path d="M200.768241,57.0346118 C200.542093,57.3991282 200.108192,57.744752 199.464915,58.0709276 L199.635879,59 L211.743442,56.6484244 L211.571937,55.7182406 C210.867525,55.6548948 210.35247,55.4937519 210.026233,55.2364788 C209.699996,54.9786501 209.481964,54.5485651 209.371054,53.9473353 L206.875313,40.3952139 L216.02997,19.9411736 C216.819864,18.1836042 217.471798,16.9800331 217.986311,16.3282377 C218.500824,15.6769979 219.172775,15.2102391 220,14.9296281 L219.829037,14 L204.894626,16.9011286 L205.06559,17.8313124 C205.667749,17.8140867 206.168195,17.9324434 206.567471,18.1852712 C206.965123,18.4392102 207.205337,18.7887237 207.287573,19.2338116 C207.362234,19.640003 207.117691,20.4896152 206.555568,21.7820928 L201.349841,33.7839079 L192.435939,24.5248568 C191.444784,23.4946533 190.917827,22.8045169 190.853987,22.4561148 C190.672203,21.4686975 191.193208,20.7468883 192.417544,20.2879087 L192.246581,19.3582806 L177,22.3205325 L177.171504,23.2496049 C178.040929,23.201262 178.831364,23.3835202 179.542269,23.7969352 C180.253174,24.2103502 181.289234,25.0866344 182.649366,26.4263435 L198.445086,42.0333152 L200.941368,55.584881 C201.051737,56.1866665 200.994388,56.6695397 200.768241,57.0346118" id="Fill-2" fill="#FFFFFF"></path>
                <path d="M277.313089,45.5122716 C276.997764,45.2300126 276.801031,44.7766875 276.720676,44.1551474 L272.222432,9.38425717 C272.144848,8.78267481 272.22077,8.30311958 272.451861,7.94445104 C272.683506,7.58692295 273.137376,7.25961653 273.812916,6.96253178 L273.688227,6 L258.60135,8.06647818 L258.725485,9.02900996 C259.712472,8.9965074 260.259443,9.38995937 260.365845,10.2127872 C260.420154,10.63418 260.263322,11.3389722 259.895904,12.3277341 L251.563874,34.7014659 L237.93337,14.9684241 C237.593106,14.4848773 237.396374,14.0429566 237.34539,13.6415215 C237.233446,12.7793485 237.620261,12.1646511 238.50528,11.7985697 L238.38059,10.8360379 L223,12.9430017 L223.12469,13.9055335 C223.851768,14.0098838 224.372693,14.2043289 224.687465,14.4871582 C225.001128,14.7711278 225.19786,15.2136188 225.275445,15.8152011 L229.774243,50.5855212 C229.854044,51.2070612 229.778676,51.6974506 229.547031,52.0549787 C229.315385,52.4136473 228.863178,52.7409537 228.187084,53.0380384 L228.311773,54 L240.033696,52.3942598 L239.909561,51.4322982 C239.181374,51.3273777 238.661003,51.134073 238.346785,50.8501034 C238.032014,50.5667039 237.834727,50.1145192 237.754372,49.4929792 L234.493048,24.2869633 L252.881149,50.6345601 L264.748266,20.1426026 L268.009589,45.3486184 C268.089391,45.9701585 268.009589,46.4651096 267.77074,46.8351826 C267.530227,47.2046853 267.081345,47.5262895 266.42243,47.8005655 L266.54712,48.762527 L279,47.0569983 L278.875865,46.0944665 C278.148786,45.9906864 277.626753,45.7962413 277.313089,45.5122716" id="Fill-3" fill="#FFFFFF"></path>
                <path d="M323.575854,42.2764925 C326.891748,41.0615481 329.290239,39.3701211 330.771327,37.1993517 C332.411777,34.8169394 333.14613,32.1673995 332.976001,29.2530199 C332.868325,27.410583 332.39078,25.7059999 331.543367,24.1364106 C330.694877,22.5673933 329.593886,21.3295685 328.239318,20.4235082 C326.907361,19.5569165 325.40043,18.9139798 323.721217,18.4964141 C322.040928,18.0799924 319.858328,17.8071447 317.171802,17.680159 L312.65424,17.4908245 C309.623151,17.3655548 307.641906,17.1922364 306.710505,16.9691534 C304.904234,16.5195553 303.956144,15.5151097 303.865157,13.9575326 C303.809165,13.0068557 304.105275,12.1036554 304.753487,11.2490758 C305.401699,10.3939242 306.276569,9.72639118 307.378099,9.24704868 C308.89149,8.61955617 310.657921,8.23917101 312.679006,8.1053212 C317.254175,7.8033011 321.311959,8.79630657 324.851819,11.0837656 C326.003956,11.8004913 326.599945,12.5040608 326.640324,13.1921862 C326.647323,13.3134518 326.646784,13.476474 326.640324,13.6801088 L327.469432,14.1131187 L331.558442,4.04120609 L330.731487,3.6362246 C330.22487,4.13959143 329.772091,4.40443102 329.370996,4.43074337 C329.123879,4.4473316 328.432597,4.25799703 327.30038,3.86273967 C323.993639,2.63177898 321.24843,1.81781194 319.062599,1.42026655 C316.876769,1.02386518 314.535347,0.907747604 312.03887,1.07248584 C306.090828,1.46488316 301.718629,3.27013964 298.921197,6.48653925 C296.786513,8.92729634 295.822271,11.9005927 296.026856,15.4064282 C296.151222,17.534297 296.709524,19.3904622 297.701762,20.9732077 C298.798984,22.7327035 300.242386,24.0099969 302.03089,24.8079477 C303.28855,25.3759514 304.535981,25.7672047 305.773182,25.9799916 C307.010384,26.1939225 309.115457,26.3649528 312.090016,26.4936545 L316.521976,26.6881372 C319.496535,26.8368592 321.481549,27.0816785 322.477555,27.4214511 C323.90319,27.9156658 324.656925,28.8503265 324.737144,30.2248611 C324.790444,31.1349255 324.54548,32.0284016 324.003868,32.9064335 C323.462256,33.7850374 322.710136,34.5091992 321.748586,35.079491 C320.010151,36.1073889 317.872237,36.705137 315.337536,36.8721633 C313.011188,37.0260333 310.527094,36.7629098 307.885254,36.0833646 C305.243415,35.4038193 303.268092,34.5172073 301.960901,33.4241005 C301.095183,32.7090908 300.63702,31.8956958 300.583181,30.9844874 C300.578336,30.9032623 300.570799,30.7717005 300.560031,30.5892301 L299.706157,30.218569 L296.069388,40.6754428 L296.924877,41.0764203 C297.432571,40.5959338 297.810515,40.3471104 298.058709,40.3305222 C298.26814,40.316794 298.921735,40.538161 300.020572,40.9940511 C305.207343,43.2952384 310.383346,44.2745156 315.54912,43.934171 C318.427847,43.7436924 321.103605,43.1905609 323.575854,42.2764925" id="Fill-4" fill="#FFFFFF"></path>
                <path d="M376.629265,28.4305894 C376.670198,28.7348108 376.692028,28.9984313 376.693666,29.2214508 C376.698578,29.8104509 376.461715,30.3651403 375.981986,30.8860909 C375.502803,31.408757 374.645949,32.0400737 373.413062,32.7823282 C370.003657,34.8432568 366.383041,35.8920201 362.54903,35.9286182 C358.019166,35.9703628 354.397459,34.820383 351.685544,32.4741038 C348.486805,29.7281052 346.868061,26.1157618 346.829857,21.6365016 C346.791654,17.1583852 348.347089,13.5163058 351.498892,10.7102634 C354.169328,8.31423382 357.770297,7.09391706 362.30016,7.05102871 C366.134717,7.01557433 369.773344,7.99056968 373.217678,9.97944581 C374.462571,10.6953955 375.328703,11.3084131 375.818256,11.8190705 C376.305626,12.3302997 376.552858,12.8786988 376.55777,13.4642679 C376.559407,13.6867155 376.542488,13.9594855 376.507559,14.2837215 L377.296738,14.8212556 L382.739669,6.09719162 L381.979416,5.55622646 C381.44129,6.08918579 380.999765,6.35738099 380.650474,6.36081206 C380.301729,6.36367128 379.319349,5.89704594 377.705517,4.95807682 C374.319581,2.9617667 371.50015,1.62822468 369.248316,0.959738129 C366.995937,0.291823429 364.302033,-0.0278378023 361.164966,0.00189812612 C352.626991,0.0831000846 346.271538,2.93203077 342.099152,8.55040571 C339.323928,12.2896987 337.957874,16.6746045 338.000989,21.7056948 C338.03319,25.3980966 338.845836,28.7679778 340.441112,31.8153387 C341.818627,34.4801353 343.696611,36.7046115 346.074516,38.4876235 C350.108824,41.5532834 355.252675,43.0572352 361.506616,42.9983351 C364.642591,42.9685992 367.345228,42.5923254 369.61398,41.8689417 C371.883278,41.1461299 374.674329,39.7622655 377.987133,37.7173486 C379.585683,36.7269135 380.559331,36.2294085 380.908076,36.2259774 C381.255184,36.2225464 381.703258,36.4833076 382.250662,37.0065456 L383,36.4501406 L377.40862,27.8450204 L376.629265,28.4305894" id="Fill-5" fill="#FFFFFF"></path>
                <path d="M397.439267,41.3790198 C396.769848,41.1648105 396.303498,40.8861141 396.039124,40.5434913 C395.773108,40.2003078 395.655973,39.7309538 395.686078,39.1354294 L396.425012,24.4733053 L419.31773,25.6822983 L418.578796,40.3444224 C418.548144,40.9405076 418.385578,41.3952818 418.088363,41.7081845 C417.7906,42.0210871 417.296882,42.2487546 416.609948,42.3923085 L416.560685,43.3455961 L428.952332,44 L429.001594,43.0461516 C428.313018,42.8111943 427.841742,42.527451 427.585578,42.1954826 C427.328867,41.8629535 427.216659,41.3986464 427.246763,40.8025612 L428.982984,6.32270937 C429.013089,5.727185 429.171276,5.27745755 429.459186,4.97408779 C429.747097,4.67127879 430.244098,4.4380037 430.95238,4.27650557 L431,3.32209645 L418.608901,2.66825331 L418.56128,3.62154091 C419.249857,3.83687176 419.722775,4.11556819 419.977844,4.45763021 C420.232366,4.79969224 420.344574,5.26904619 420.314469,5.86513132 L419.654902,18.9773219 L396.762185,17.7677682 L397.422299,4.65557758 C397.451856,4.06005321 397.610043,3.60527894 397.898501,3.29125479 C398.186411,2.97835216 398.684507,2.75068465 399.391694,2.60881302 L399.439315,1.65496466 L387.048215,1 L387.000595,1.95384836 C387.688624,2.18992723 388.160447,2.47367048 388.415516,2.80563887 C388.671133,3.13816802 388.783341,3.6019144 388.753784,4.19743877 L387.01811,38.6772906 C386.987458,39.2733758 386.829272,39.723664 386.541909,40.0270337 C386.253451,40.3298427 385.756449,40.5625571 385.04762,40.7246159 L385,41.6779035 L397.392194,42.3328682 L397.439267,41.3790198" id="Fill-6" fill="#FFFFFF"></path>
                <path d="M443.999784,24.7711073 C444.508749,20.3224874 446.41682,16.9084436 449.722895,14.5289757 C452.514496,12.5144848 455.804045,11.7384105 459.592646,12.201322 C463.414296,12.7103539 466.46699,14.2625026 468.750175,16.8577681 C471.436567,19.8897534 472.51509,23.7296987 471.981337,28.3787427 C471.76376,30.2822032 471.202465,32.0826046 470.300207,33.7799469 C469.272912,35.6868237 467.933847,37.2401111 466.279157,38.43924 C463.506836,40.4571471 460.20682,41.2320827 456.380763,40.7634773 C452.554155,40.2954413 449.510826,38.7444313 447.251326,36.1110169 C444.574849,32.9998869 443.490267,29.2197272 443.999784,24.7711073 Z M439.817891,39.9264786 C443.434082,44.2953843 448.678524,46.8991906 455.552316,47.7413138 C464.717006,48.8624366 471.691601,46.3394833 476.473897,40.1713149 C478.922882,37.0129258 480.372112,33.4684923 480.82269,29.5363063 C481.556945,23.1176077 480.010769,17.6196078 476.18361,13.0417371 C472.569071,8.67397014 467.295436,6.06560873 460.363255,5.21722225 C451.106577,4.20656049 444.152363,6.72268122 439.502817,12.7638763 C437.074213,15.9251124 435.62388,19.5612171 435.15182,23.6733294 C434.830136,26.482115 435.020172,29.2202966 435.716971,31.889013 C436.51402,34.914735 437.879525,37.5948392 439.817891,39.9264786 Z" id="Fill-7" fill="#FFFFFF"></path>
                <path d="M521.814296,37.3803703 C521.465468,39.2512774 520.782139,40.9948927 519.763757,42.6117819 C518.607608,44.4255491 517.164351,45.8670585 515.430678,46.9351784 C512.525427,48.7319734 509.179318,49.258113 505.392351,48.5141629 C501.605935,47.7707786 498.676436,46.0113226 496.603303,43.235229 C494.144971,39.9561913 493.324976,36.1306473 494.140012,31.7597285 C494.954496,27.388244 497.094309,24.1437165 500.556143,22.0272776 C503.481233,20.2344428 506.816872,19.7060403 510.565264,20.4426357 C514.343964,21.2261876 517.283382,22.9879067 519.383518,25.727227 C521.855627,28.9270609 522.665152,32.8120077 521.814296,37.3803703 Z M511.816197,13.5767969 C502.648012,11.8982419 495.536428,13.8834288 490.47924,19.5306604 C487.837952,22.4855282 486.139548,25.9840736 485.386233,30.0245994 C484.871532,32.7842864 484.871532,35.5122919 485.38458,38.2080501 C485.969267,41.2653171 487.150214,44.021044 488.923013,46.4735334 C492.228894,51.06792 497.283326,54.0324055 504.084657,55.3686869 C513.152547,57.1507726 520.286725,55.1599283 525.483334,49.3967197 C528.145563,46.4463778 529.836252,43.038351 530.555952,39.1743366 C531.733592,32.8668847 530.568626,27.3045143 527.063808,22.4889227 C523.757927,17.8956675 518.674288,14.9243931 511.816197,13.5767969 Z" id="Fill-8" fill="#FFFFFF"></path>
                <path d="M570.123648,60.6115043 C569.765627,61.2500657 569.407605,61.6640413 569.044239,61.8500789 C568.686218,62.0377925 568.21598,62.0528766 567.649558,61.8953313 L544.586545,55.5164206 L552.115689,25.7699588 C552.26531,25.1760911 552.505773,24.7565288 552.84242,24.5107133 C553.179067,24.2665739 553.702741,24.1481356 554.402753,24.1587503 L554.637872,23.2391771 L542.924683,20 L542.694908,20.9195732 C543.304079,21.2933244 543.699506,21.669869 543.881189,22.0469722 C544.057528,22.4240755 544.073559,22.9101196 543.923938,23.5039874 L535.523786,56.6996867 C535.374165,57.2929958 535.128359,57.7080887 534.797055,57.943848 C534.460408,58.1790487 533.942078,58.3019564 533.231913,58.3108952 L533,59.2304684 L566.014414,68.3619534 C566.580836,68.5189401 566.981607,68.7725769 567.206038,69.1223052 C567.43047,69.4709162 567.548029,70.0161796 567.553373,70.7564192 L568.435068,71 L571,60.8545263 L570.123648,60.6115043" id="Fill-9" fill="#FFFFFF"></path>
                <path d="M221.283205,271.640796 L225,266.61237 L224.593173,266.257675 C224.237268,266.45447 223.945017,266.528196 223.716972,266.478271 C223.40092,266.410931 222.903872,266.142153 222.225826,265.674257 C220.90516,264.782585 219.705712,264.092933 218.628035,263.604719 C217.550912,263.116506 216.376371,262.734527 215.104414,262.458782 C211.102563,261.594975 207.688536,261.950831 204.862332,263.527511 C201.882808,265.190107 200.025794,267.891827 199.291291,271.632669 C198.502545,275.646933 199.315645,279.091712 201.73004,281.967006 C203.6496,284.248432 206.407169,285.77751 210.004406,286.55482 C213.970833,287.412241 218.315857,287.030843 223.040034,285.412946 L223.124167,284.985687 C222.75055,284.785409 222.506454,284.578745 222.392985,284.363954 C222.278409,284.148583 222.256823,283.864131 222.325457,283.511177 L223.266972,278.721344 C223.33616,278.36781 223.466787,278.116446 223.657747,277.967834 C223.848153,277.818642 224.148154,277.728662 224.556641,277.698475 L224.663468,277.150469 L214.109763,274.869623 C213.772124,274.796478 213.535223,274.665282 213.396847,274.474873 C213.259577,274.284463 213.177658,273.966921 213.152197,273.521666 L212.629687,273.408466 L211.560866,278.849057 L212.083376,278.961677 C212.272122,278.574473 212.466956,278.319046 212.667325,278.196558 C212.866588,278.072908 213.135038,278.047946 213.472124,278.12051 L218.968995,279.308245 L218.344086,282.49005 C217.373236,282.81572 216.260135,282.99684 215.006443,283.035154 C213.752198,283.072888 212.510683,282.959107 211.281345,282.693811 C208.759017,282.148127 206.861597,281.013799 205.5913,279.290249 C204.203106,277.411701 203.750892,275.241734 204.234103,272.780348 C204.733366,270.240012 205.999234,268.381782 208.032263,267.206238 C209.832819,266.170598 211.895737,265.904141 214.221571,266.406287 C215.363455,266.652426 216.538549,267.098262 217.748513,267.744956 C218.959032,268.39107 219.844088,269.046472 220.404237,269.711743 C220.661617,270.016513 220.817706,270.259749 220.87195,270.443192 C220.9273,270.626635 220.923426,270.906444 220.860326,271.283198 L221.283205,271.640796" id="Fill-10" fill="#FFFFFF"></path>
                <path d="M250.934455,270.909636 C250.737797,271.035005 250.477948,271.071815 250.153273,271.021668 L230.463567,268 L230.382398,268.507346 C230.753922,268.67326 231.002332,268.852511 231.126536,269.044033 C231.250196,269.237155 231.28615,269.496963 231.233309,269.824524 L228.303604,288.139117 C228.250763,288.466678 228.134729,288.704613 227.957138,288.850254 C227.779003,288.99643 227.487013,289.092457 227.081169,289.137804 L227,289.645149 L247.079208,292.727101 C247.402794,292.776182 247.639218,292.887681 247.788482,293.063198 C247.9372,293.237648 248.035257,293.523597 248.082106,293.920511 L248.60017,294 L249.496296,288.402126 L248.978232,288.32317 C248.809357,288.686474 248.626318,288.930277 248.430206,289.050845 C248.233548,289.173014 247.973699,289.208224 247.650113,289.15861 L233.433038,286.977183 L234.381461,281.046413 L243.351979,282.422809 C243.676654,282.472956 243.911989,282.588189 244.060708,282.767974 C244.207792,282.947226 244.307483,283.230507 244.355966,283.616751 L244.87403,283.696774 L245.74891,278.225337 L245.230846,278.14638 C245.062516,278.510218 244.880023,278.752955 244.683365,278.874056 C244.486708,278.995691 244.226859,279.032502 243.903273,278.98182 L234.93221,277.605425 L235.754249,272.46795 L249.582367,274.589626 C249.906498,274.63924 250.142923,274.752873 250.291641,274.929457 C250.439815,275.106041 250.538416,275.390923 250.586355,275.783569 L251.104419,275.862525 L252,270.265717 L251.481391,270.185694 C251.313606,270.544197 251.131112,270.785867 250.934455,270.909636" id="Fill-11" fill="#FFFFFF"></path>
                <path d="M275.946148,273.464172 C275.751481,273.597976 275.484571,273.644468 275.144316,273.603079 L256.280313,271.29382 C255.950536,271.253565 255.708994,271.145842 255.55734,270.968381 C255.404584,270.792621 255.292637,270.490427 255.219292,270.064634 L254.69209,270 L254,275.97924 L254.527202,276.043875 C254.68437,275.644729 254.860287,275.378255 255.053852,275.245017 C255.247968,275.111213 255.509363,275.064722 255.838588,275.104976 L262.824562,275.96053 L260.795166,293.491168 C260.754358,293.840987 260.646822,294.097824 260.472007,294.258843 C260.296641,294.420995 260.005467,294.534389 259.59683,294.599023 L259.533963,295.141044 L266.553025,296 L266.61534,295.457979 C266.232623,295.296393 265.97564,295.116098 265.842185,294.915958 C265.709833,294.717519 265.664061,294.44254 265.704318,294.091587 L267.734265,276.560949 L274.703143,277.413101 C275.043949,277.455624 275.292661,277.564482 275.45038,277.740809 C275.608099,277.917702 275.718393,278.218195 275.780157,278.645122 L276.307358,278.709189 L277,272.729949 L276.472247,272.665882 C276.315079,273.063893 276.13861,273.329801 275.946148,273.464172" id="Fill-12" fill="#FFFFFF"></path>
                <path d="M308.92896,284.79387 L312,279.343114 L311.553484,279.043062 C311.22659,279.290957 310.947655,279.406406 310.716128,279.388239 C310.572802,279.378276 310.190231,279.213013 309.568416,278.894208 C307.759749,277.918451 306.242696,277.228682 305.017257,276.823729 C303.790715,276.417603 302.456127,276.160918 301.011289,276.053087 C297.569806,275.795229 294.930949,276.476793 293.095271,278.096607 C291.694533,279.324361 290.926635,280.952965 290.792129,282.983007 C290.711095,284.214863 290.897419,285.325995 291.353306,286.31523 C291.856602,287.41464 292.593078,288.26557 293.562184,288.868605 C294.242432,289.297 294.930949,289.623424 295.62553,289.84612 C296.31956,290.068815 297.515783,290.338393 299.213096,290.654268 L301.742252,291.124858 C303.438463,291.451869 304.560267,291.753679 305.107111,292.029704 C305.889893,292.429969 306.255375,293.026558 306.201903,293.823572 C306.167725,294.349836 305.962658,294.843281 305.589459,295.302736 C305.214606,295.762777 304.731155,296.117918 304.138005,296.368157 C303.066366,296.816477 301.797378,296.985843 300.33104,296.877425 C298.985428,296.77604 297.578074,296.422658 296.111186,295.817865 C294.643194,295.214244 293.57376,294.544987 292.902332,293.810093 C292.45747,293.330126 292.252954,292.825546 292.287132,292.297524 C292.290439,292.250641 292.295952,292.174456 292.302016,292.068969 L291.838962,291.786497 L289,297.495111 L289.462503,297.795164 C289.788294,297.560748 290.023129,297.448814 290.167006,297.458777 C290.287731,297.468739 290.647149,297.648654 291.244709,297.999691 C294.056108,299.741402 296.955708,300.724191 299.944611,300.948058 C301.609951,301.072884 303.185437,300.972671 304.669966,300.648005 C306.659996,300.220782 308.158306,299.443694 309.163795,298.317911 C310.276227,297.082539 310.888119,295.621542 311.000024,293.933747 C311.070585,292.867741 310.919541,291.84979 310.545239,290.879308 C310.172039,289.909412 309.629054,289.110054 308.916832,288.480061 C308.214534,287.87351 307.396472,287.382994 306.462647,287.006757 C305.528821,286.629933 304.295113,286.296476 302.763176,286.005215 L300.184407,285.530522 C298.453467,285.212889 297.329459,284.951515 296.810728,284.748159 C295.806893,284.343206 295.335019,283.690357 295.394555,282.787856 C295.430386,282.236979 295.665772,281.742947 296.100161,281.305175 C296.533447,280.866232 297.083048,280.553872 297.748963,280.368684 C298.662392,280.130752 299.703713,280.056325 300.873475,280.143058 C303.5206,280.341726 305.777437,281.241297 307.644537,282.841772 C308.253673,283.346938 308.545287,283.798189 308.519378,284.197282 C308.514417,284.267607 308.502289,284.360787 308.484098,284.477995 L308.92896,284.79387" id="Fill-13" fill="#FFFFFF"></path>
                <path d="M333.861328,279.140196 C334.259403,279.25478 334.532941,279.407747 334.68361,279.599661 C334.833166,279.791576 334.903218,280.057998 334.891543,280.39667 L334.653587,287.866083 L321.496525,287.432583 L321.734481,279.964298 C321.7456,279.625062 321.831776,279.364284 321.99412,279.183095 C322.155351,279.000776 322.439453,278.866436 322.843644,278.777253 L322.860879,278.234248 L315.739442,278 L315.721651,278.543569 C316.11917,278.670006 316.392708,278.82636 316.543932,279.01263 C316.693489,279.198335 316.762985,279.46137 316.752978,279.800042 L316.125842,299.43851 C316.115279,299.778875 316.028547,300.036831 315.866759,300.212376 C315.704972,300.388485 315.421426,300.526212 315.016679,300.625556 L315,301.169124 L322.121993,301.403373 L322.139228,300.859804 C321.752272,300.745784 321.480402,300.592253 321.325286,300.399774 C321.169614,300.20786 321.096782,299.942002 321.108457,299.602201 L321.374767,291.251676 L334.531829,291.684047 L334.265519,300.035702 C334.2544,300.375503 334.164888,300.635716 333.998097,300.816905 C333.830194,300.997531 333.549428,301.132999 333.156356,301.222183 L333.139121,301.765187 L340.26167,302 L340.278349,301.456431 C339.88083,301.330558 339.606736,301.174204 339.45718,300.987935 C339.305955,300.801665 339.237015,300.53863 339.247578,300.198829 L339.874158,280.560926 C339.884721,280.221689 339.971453,279.963734 340.133241,279.787624 C340.294472,279.612079 340.578574,279.473788 340.983321,279.37388 L341,278.830876 L333.878563,278.596627 L333.861328,279.140196" id="Fill-14" fill="#FFFFFF"></path>
                <path d="M346.067058,278.56224 C346.456968,278.680176 346.727364,278.833727 346.879326,279.02114 C347.030207,279.209721 347.105377,279.478872 347.104295,279.829761 L347.046431,300.136376 C347.04589,300.498942 346.968557,300.774515 346.816595,300.960761 C346.663551,301.14759 346.392074,301.299389 346.001622,301.41499 L346,301.97723 L352.93132,302 L352.932401,301.43776 C352.553307,301.331501 352.285615,301.180869 352.128245,300.987034 C351.971956,300.793782 351.894082,300.515289 351.895705,300.152723 L351.953028,279.846693 C351.95411,279.494636 352.030902,279.223149 352.182865,279.030481 C352.335368,278.83723 352.607386,278.688934 352.998378,278.58501 L353,278.02277 L346.06868,278 L346.067058,278.56224" id="Fill-15" fill="#FFFFFF"></path>
                <path d="M377.383333,277.012047 C377.288501,277.433675 377.160861,277.72566 377.000928,277.888575 C376.837918,278.05149 376.597505,278.13639 376.280714,278.143847 L358.625992,278.586701 C358.317402,278.594158 358.081602,278.521305 357.919618,278.365848 C357.757122,278.212111 357.615129,277.927009 357.493641,277.509396 L357,277.522016 L357.121488,283.613547 L357.615129,283.600353 C357.709449,283.178151 357.837601,282.885019 357.999072,282.723251 C358.160031,282.56091 358.394806,282.476584 358.703395,282.469126 L365.240169,282.305064 L365.598994,300.163764 C365.604633,300.520571 365.539532,300.792478 365.397539,300.979486 C365.25811,301.167642 365.003344,301.323673 364.635804,301.44758 L364.647594,302 L371.215124,301.835938 L371.203847,301.283518 C370.833232,301.177967 370.572314,301.034556 370.424171,300.853858 C370.275514,300.673734 370.198623,300.404695 370.192985,300.048461 L369.834159,282.190335 L376.358118,282.026847 C376.674909,282.018816 376.917885,282.091668 377.087046,282.244831 C377.256206,282.398568 377.395123,282.684817 377.504821,283.10243 L378,283.090383 L377.878512,277 L377.383333,277.012047" id="Fill-16" fill="#FFFFFF"></path>
                <path d="M410.157696,294.882099 C409.19494,295.532418 407.716859,295.93697 405.721782,296.092836 L399.469988,296.584953 L398.32581,280.558737 L404.577605,280.067787 C406.093529,279.948115 407.319513,280.013497 408.256113,280.262766 C409.19327,280.512619 410.012448,280.990726 410.712533,281.698838 C411.968569,282.97379 412.689245,284.896142 412.872892,287.464727 C413.125546,291.014628 412.221779,293.485723 410.157696,294.882099 Z M416.289842,281.013493 C415.106153,278.864639 413.409921,277.389454 411.201703,276.587939 C409.661849,276.039196 407.499264,275.874573 404.714506,276.09407 L392,277.092899 L392.040068,277.653318 C392.448544,277.739132 392.738484,277.868729 392.907662,278.043276 C393.076284,278.217823 393.174229,278.486356 393.200385,278.848293 L394.645076,299.077064 C394.670119,299.439585 394.612798,299.71921 394.46922,299.918859 C394.327867,300.117925 394.060744,300.291888 393.668407,300.439582 L393.706806,301 L406.421868,300.001171 C408.527689,299.835964 410.245624,299.504383 411.576232,299.005261 C412.906839,298.507889 414.047677,297.763 414.994851,296.773511 C417.25872,294.42384 418.24318,291.187423 417.949345,287.065429 C417.780167,284.71926 417.228112,282.70117 416.289842,281.013493 Z" id="Fill-17" fill="#FFFFFF"></path>
                <path d="M442.68185,286.891181 C442.362132,288.11143 441.82615,289.178344 441.070603,290.08841 C439.806038,291.618257 438.094638,292.520129 435.932,292.792856 C433.771564,293.067339 431.90113,292.619037 430.324001,291.448534 C428.455218,290.06734 427.378301,288.083923 427.088849,285.498868 C426.798847,282.914398 427.410218,280.717364 428.921313,278.907767 C430.195233,277.376749 431.904432,276.475462 434.042306,276.204491 C436.207695,275.954003 438.081431,276.40172 439.667365,277.547057 C441.530645,278.882016 442.613614,280.900548 442.915723,283.601483 C443.038438,284.708193 442.961948,285.804369 442.68185,286.891181 Z M443.261305,274.346317 C440.717317,272.38631 437.488219,271.654746 433.572909,272.149869 C428.359467,272.880848 424.862928,275.280379 423.082742,279.347291 C422.153854,281.475265 421.820929,283.732579 422.09057,286.122746 C422.271616,287.754427 422.725054,289.276081 423.450335,290.685366 C424.274119,292.283102 425.367544,293.6046 426.730611,294.649274 C429.274048,296.609281 432.487739,297.343771 436.36948,296.85216 C441.546053,296.196678 445.052497,293.79071 446.889913,289.633669 C447.832009,287.50511 448.173739,285.298127 447.917854,283.013305 C447.500735,279.283498 445.948368,276.394112 443.261305,274.346317 Z" id="Fill-18" fill="#FFFFFF"></path>
                <path d="M478.021601,288.103377 C477.838982,287.956878 477.718896,287.71848 477.663003,287.387101 L474.51143,268.839612 C474.457198,268.517964 474.490401,268.259564 474.615468,268.063332 C474.739982,267.86818 474.989562,267.684381 475.365316,267.513556 L475.27954,267 L468.692504,268.068197 L468.779387,268.581213 C469.192218,268.625 469.48939,268.719062 469.67201,268.865561 C469.854076,269.012059 469.972502,269.245052 470.027288,269.566159 L472.236432,282.562375 L457.732559,272.004741 C457.37396,271.744719 457.172525,271.486319 457.12936,271.229 C457.065167,270.854915 457.258854,270.571108 457.709869,270.376497 L457.622433,269.863481 L450,271.09926 L450.087989,271.612816 C450.500821,271.655522 450.797439,271.750125 450.981166,271.896083 C451.163232,272.043122 451.282211,272.276655 451.33589,272.597222 L454.488016,291.145792 C454.543909,291.47663 454.510705,291.740436 454.385639,291.936128 C454.262232,292.13236 454.010992,292.316159 453.635238,292.486984 L453.723227,293 L460.309709,291.932344 L460.22172,291.418787 C459.808889,291.375541 459.511717,291.281479 459.330757,291.134439 C459.146477,290.988481 459.028605,290.749002 458.972159,290.418164 L456.708228,277.100299 L471.426819,287.738481 C472.056026,288.186086 472.386402,288.517465 472.423479,288.730996 C472.484352,289.095351 472.293985,289.3624 471.851271,289.532144 L471.937047,290.046241 L479,288.90074 L478.913671,288.387725 C478.501393,288.345018 478.203668,288.250416 478.021601,288.103377" id="Fill-19" fill="#FFFFFF"></path>
                <path d="M504.30859,279.029155 C504.283929,279.43053 504.203514,279.722976 504.067343,279.90542 C503.930636,280.089473 503.7044,280.2145 503.388635,280.282111 L489.537837,283.23179 L488.28228,277.32492 L497.021857,275.464535 C497.337622,275.396924 497.594952,275.421607 497.796528,275.539122 C497.996495,275.6561 498.18842,275.886837 498.37284,276.232943 L498.876778,276.125624 L497.718793,270.678081 L497.213782,270.784864 C497.189121,271.186239 497.108706,271.478685 496.971999,271.662202 C496.835828,271.845182 496.609592,271.969672 496.29329,272.037284 L487.553177,273.899279 L486.465421,268.782817 L499.938265,265.913091 C500.254567,265.846553 500.511897,265.869627 500.711864,265.983922 C500.911831,266.097681 501.104293,266.330564 501.289785,266.682572 L501.793723,266.574716 L500.609468,261 L500.104458,261.107856 C500.078189,261.503865 499.997237,261.794702 499.86053,261.980364 C499.724896,262.167101 499.49866,262.293201 499.183966,262.360812 L480,266.445933 L480.106685,266.950871 C480.508227,266.976092 480.799332,267.057118 480.982144,267.19395 C481.166564,267.331319 481.292548,267.56313 481.362242,267.888845 L485.238278,286.126736 C485.307971,286.454061 485.286527,286.717531 485.174481,286.916609 C485.062972,287.11676 484.830302,287.308862 484.473793,287.495061 L484.580478,288 L504.14347,283.83439 C504.459772,283.767852 504.716566,283.789316 504.916533,283.900928 C505.1165,284.01254 505.308961,284.247034 505.494453,284.602798 L506,284.496015 L504.814673,278.921299 L504.30859,279.029155" id="Fill-20" fill="#FFFFFF"></path>
                <path d="M77.2389251,106.692959 L70.3407105,66.1948985 L85.4301165,58.3208076 L74.8677482,70.2451551 L77.2389251,106.692959 Z M163.205152,283.771574 C163.205152,283.771574 116.521999,196.575311 101.862146,70.0502741 C101.862146,70.0502741 108.468416,73.3959179 108.885557,75.1932157 C108.885557,75.1932157 105.741076,56.3939647 96.8780336,53.7084378 C88.0155304,51.022911 67.7169822,56.0954476 68.0029913,66.8381182 C68.2846832,77.419139 94.0848584,236.807522 135.841641,306.605311 C137.049354,308.623399 139.116714,309.919413 141.395613,309.98137 C152.016802,310.270875 181.383996,307.659696 167.20766,267.956367 C167.20766,267.956367 166.350172,281.086047 163.205152,283.771574 Z" id="Fill-21" fill="#2D2D2B"></path>
                <path d="M53.5722753,102.450646 L52.8010698,132.907645 L49.5224966,102.650088 C49.5224966,102.650088 56.1957851,91.4129593 60.3215447,93.0947751 L53.5722753,102.450646 Z M48.0153624,125.803346 C55.1038319,179.654504 90.2607086,286.480058 99.3333635,291.747917 C110.674046,299.065104 124,291.747917 124,291.747917 C82.3217965,217.116642 63.0422014,86 63.0422014,86 C55.1537622,87.844283 43.4793063,92.4387437 48.0153624,125.803346 Z" id="Fill-22" fill="#2D2D2B"></path>
                <path d="M31.9698089,148.775192 C31.9698089,148.775192 23.7585928,119.012269 38.5389994,115.879182 C38.5389994,115.879182 30.4540512,124.103606 31.9698089,148.775192 Z M28.9513556,155.494655 C37.3966025,217.111474 64.0124372,269.736767 69.7674183,279.521267 C75.5229435,289.30633 91,285.101885 91,285.101885 C52.067069,207.677907 42.884353,109 42.884353,109 C30.457861,113.544692 23.3210096,122.70325 28.9513556,155.494655 Z" id="Fill-23" fill="#2D2D2B"></path>
                <path d="M255.958437,140 C237.074613,142.760637 151,158.965289 151,158.965289 L156.725302,184 C166.478856,178.615763 257.184356,164.738534 262,164.004722 C258.145637,157.184357 255.937244,149.28593 255.937244,140.870849 C255.937244,140.579093 255.953003,140.290652 255.958437,140" id="Fill-24" fill="#2D2D2B"></path>
                <path d="M545.234321,185 L551,159.553227 C551,159.553227 456.960295,141.693419 443.243126,140 C443.687735,145.791885 443.03232,153.814139 440,164.805914 C450.451046,166.421261 535.756267,179.723723 545.234321,185" id="Fill-25" fill="#2D2D2B"></path>
                <path d="M152,193.755534 C143.272878,182.636664 139.636531,152 139.636531,152 L128,156.446985 L141.090959,198 L152,193.755534" id="Fill-26" fill="#2D2D2B"></path>
                <path d="M9.39167308,215.250533 C3.05217525,220.16039 4.22951056,225.997197 4.22951056,225.997197 C-1.47658636,212.841924 18.0002172,208.024144 18.0002172,208.024144 C18.0002172,208.024144 15.7317198,210.340114 9.39167308,215.250533 Z M6.50404554,210.07455 C0.954926659,212.942423 -1.48097736,219.710109 0.925287448,225.573866 C3.46218433,231.754279 10.4235567,234.651909 16.4578804,232.038371 L36,223.577359 C30.840033,214.010296 27.9375858,199 27.9375858,199 L6.50404554,210.07455 Z" id="Fill-27" fill="#2D2D2B"></path>
                <path d="M619.57162,58.3208076 L634.660312,66.1948985 L627.763549,106.692959 L630.132625,70.2451551 L619.57162,58.3208076 Z M608.125585,53.7084378 C599.25909,56.3939647 596.112914,75.1932157 596.112914,75.1932157 C596.533844,73.3959179 603.139193,70.0502741 603.139193,70.0502741 C588.476828,196.575311 541.796863,283.771574 541.796863,283.771574 C538.650687,281.086047 537.79264,267.956367 537.79264,267.956367 C523.615422,307.659696 552.983865,310.270875 563.604232,309.98137 C565.881566,309.919413 567.948436,308.623399 569.157259,306.605311 C610.91559,236.807522 636.716389,77.419139 636.997008,66.8381182 C637.283024,56.0954476 616.986684,51.022911 608.125585,53.7084378 Z" id="Fill-28" fill="#2D2D2B"></path>
                <path d="M652.199515,132.907645 L651.428852,102.450646 L644.677407,93.0947751 C648.802084,91.4129593 655.477547,102.650088 655.477547,102.650088 L652.199515,132.907645 Z M641.958377,86 C641.958377,86 622.675515,217.116642 581,291.747917 C581,291.747917 594.323791,299.065104 605.666651,291.747917 C614.740939,286.480058 649.892952,179.654504 656.986311,125.803346 C661.518028,92.4387437 649.844108,87.844283 641.958377,86 Z" id="Fill-29" fill="#2D2D2B"></path>
                <path d="M673.029351,148.775192 C674.547808,124.103606 666.460254,115.879182 666.460254,115.879182 C681.242083,119.012269 673.029351,148.775192 673.029351,148.775192 Z M662.117139,109 C662.117139,109 652.9302,207.677907 614,285.101885 C614,285.101885 629.478469,289.30633 635.231191,279.521267 C640.989356,269.736767 667.603179,217.111474 676.049938,155.494655 C681.677483,122.70325 674.542366,113.544692 662.117139,109 Z" id="Fill-30" fill="#2D2D2B"></path>
                <path d="M577,156.446985 L565.364305,152 C565.364305,152 561.726771,182.636664 553,193.755534 L563.907084,198 L577,156.446985" id="Fill-31" fill="#2D2D2B"></path>
                <path d="M700.768727,225.997197 C700.768727,225.997197 701.948803,220.16039 695.609328,215.250533 C689.269853,210.340114 686.997522,208.024144 686.997522,208.024144 C686.997522,208.024144 706.476999,212.841924 700.768727,225.997197 Z M698.496396,210.07455 L677.062934,199 C677.062934,199 674.159399,214.010296 669,223.577359 L688.539853,232.038371 C694.577448,234.651909 701.537149,231.754279 704.072938,225.573866 C706.482488,219.710109 704.045495,212.942423 698.496396,210.07455 Z" id="Fill-32" fill="#2D2D2B"></path>
                <path d="M388.237738,193.374172 L388.237738,168.146252 L404.341399,168.146252 C411.150433,168.146252 416.691419,173.804411 416.691419,180.760492 C416.691419,187.715453 411.150433,193.374172 404.341399,193.374172 L388.237738,193.374172 Z M370.928607,218.084606 C370.928607,228.691692 362.478247,237.320776 352.09233,237.320776 C341.706413,237.320776 333.256602,228.691692 333.256602,218.084606 L333.256602,211.052275 L370.928607,211.052275 L370.928607,218.084606 Z M315.94802,153.607833 L301.65915,153.607833 C294.849018,153.607833 289.308581,147.949114 289.308581,140.993032 C289.308581,134.038071 294.849018,128.378791 301.65915,128.378791 L315.94802,128.378791 L315.94802,153.607833 Z M404.341399,150.467589 L350.360978,150.467589 L350.360978,168.146252 L370.928607,168.146252 L370.928607,193.374172 L333.256602,193.374172 L333.256602,128.378791 L426.753462,128.378791 L426.753462,110.701249 L333.256602,110.701249 L333.256602,105.015618 C333.256602,93.2502136 342.62863,83.6781023 354.148105,83.6781023 C365.244898,83.6781023 374.420955,92.7069361 374.972638,103.950929 L392.315253,103.950929 C391.756983,82.9627029 374.77996,66 354.148105,66 C333.084784,66 315.94802,83.5020557 315.94802,105.015618 L315.94802,110.701249 L301.65915,110.701249 C285.304624,110.701249 272,124.290474 272,140.993032 C272,157.697271 285.304624,171.285935 301.65915,171.285935 L315.94802,171.285935 L315.94802,193.374172 L279.244891,193.374172 L279.244891,211.052275 L315.94802,211.052275 L315.94802,218.084606 C315.94802,238.439849 332.162018,255 352.09233,255 C372.022642,255 388.237738,238.439849 388.237738,218.084606 L388.237738,211.052275 L404.341399,211.052275 C420.695376,211.052275 434,197.463611 434,180.760492 C434,164.056813 420.695376,150.467589 404.341399,150.467589 Z" id="Fill-33" fill="#2D2D2B"></path>
            </g>
        </g>
    </g>
</svg>